<?xml version="1.0" encoding="UTF-8" standalone="no"?>
<svg
   xmlns:dc="http://purl.org/dc/elements/1.1/"
   xmlns:cc="http://creativecommons.org/ns#"
   xmlns:rdf="http://www.w3.org/1999/02/22-rdf-syntax-ns#"
   xmlns:svg="http://www.w3.org/2000/svg"
   xmlns="http://www.w3.org/2000/svg"
   viewBox="0 0 789.33331 412"
   height="412"
   width="789.33331"
   xml:space="preserve"
   id="svg2"
   version="1.1"><metadata
     id="metadata8"><rdf:RDF><cc:Work
         rdf:about=""><dc:format>image/svg+xml</dc:format><dc:type
           rdf:resource="http://purl.org/dc/dcmitype/StillImage" /></cc:Work></rdf:RDF></metadata><defs
     id="defs6"><clipPath
       id="clipPath20"
       clipPathUnits="userSpaceOnUse"><path
         id="path18"
         d="M 0,0 H 300887 V 157431 H 0 Z" /></clipPath></defs><g
     transform="matrix(1.3333333,0,0,-1.3333333,0,412)"
     id="g10"><g
       transform="matrix(1,0,0,-1,0,309)"
       id="g12"><g
         transform="scale(0.0019685)"
         id="g14"><g
           clip-path="url(#clipPath20)"
           id="g16"><g
             id="g22"><g
               id="g24"><g
                 id="g26"><path
                   id="path28"
                   style="fill:#000000;fill-opacity:0;fill-rule:evenodd;stroke:none"
                   d="M 0,0 H 300887 V 157431 H 0 Z" /></g></g></g><g
             id="g30"><g
               id="g32"><g
                 id="g34"><path
                   id="path36"
                   style="fill:#000000;fill-opacity:0;fill-rule:evenodd;stroke:none"
                   d="M 50748,3279 H 265284 V 152895 H 50748 Z" /></g></g><path
               id="path38"
               style="fill:none;stroke:#980000;stroke-width:381;stroke-linecap:butt;stroke-linejoin:round;stroke-miterlimit:8;stroke-dasharray:none;stroke-opacity:1"
               d="M 50748,3279 H 265284 V 152895 H 50748 Z" /></g><g
             id="g40"><g
               id="g42"><g
                 id="g44"><path
                   id="path46"
                   style="fill:#000000;fill-opacity:0;fill-rule:evenodd;stroke:none"
                   d="m 163134,15389 h 91440 v 129912 h -91440 z" /></g></g><path
               id="path48"
               style="fill:none;stroke:#0000ff;stroke-width:381;stroke-linecap:butt;stroke-linejoin:round;stroke-miterlimit:8;stroke-dasharray:none;stroke-opacity:1"
               d="m 163134,15389 h 91440 v 129912 h -91440 z" /></g><g
             id="g50"><g
               id="g52"><g
                 id="g54"><path
                   id="path56"
                   style="fill:#000000;fill-opacity:0;fill-rule:evenodd;stroke:none"
                   d="m 62735,15389 h 91440 V 145301 H 62735 Z" /></g></g><path
               id="path58"
               style="fill:none;stroke:#0000ff;stroke-width:381;stroke-linecap:butt;stroke-linejoin:round;stroke-miterlimit:8;stroke-dasharray:1524, 1143, 381, 1143;stroke-dashoffset:0;stroke-opacity:1"
               d="m 62735,15389 h 91440 V 145301 H 62735 Z" /></g><g
             id="g60"><g
               id="g62"><path
                 id="path64"
                 style="fill:#cfe2f3;fill-opacity:1;fill-rule:evenodd;stroke:none"
                 d="m 76196,31488 64512,16128 v 72204 l -64512,16128 z" /></g><path
               id="path66"
               style="fill:none;stroke:#000000;stroke-width:381;stroke-linecap:butt;stroke-linejoin:round;stroke-miterlimit:8;stroke-dasharray:none;stroke-opacity:1"
               d="m 76196,31488 64512,16128 v 72204 l -64512,16128 z" /></g><g
             id="g68"><g
               id="g70"><path
                 id="path72"
                 style="fill:#cfe2f3;fill-opacity:1;fill-rule:evenodd;stroke:none"
                 d="m 168676,65164 v 0 c 0,-4493.39 3776.92,-8136 8436,-8136 v 0 c 2237.36,0 4383.1,857.184 5965.16,2382.98 1582.04,1525.793 2470.84,3595.22 2470.84,5753.02 v 0 c 0,4493.39 -3776.92,8136 -8436,8136 v 0 c -4659.08,0 -8436,-3642.61 -8436,-8136 z" /></g><path
               id="path74"
               style="fill:none;stroke:#000000;stroke-width:381;stroke-linecap:butt;stroke-linejoin:round;stroke-miterlimit:8;stroke-dasharray:none;stroke-opacity:1"
               d="m 168676,65164 v 0 c 0,-4493.39 3776.92,-8136 8436,-8136 v 0 c 2237.36,0 4383.1,857.184 5965.16,2382.98 1582.04,1525.793 2470.84,3595.22 2470.84,5753.02 v 0 c 0,4493.39 -3776.92,8136 -8436,8136 v 0 c -4659.08,0 -8436,-3642.61 -8436,-8136 z" /></g><g
             id="g76"><g
               id="g78"><path
                 id="path80"
                 style="fill:#cfe2f3;fill-opacity:1;fill-rule:evenodd;stroke:none"
                 d="m 168676,101148 v 0 c 0,-4493.39 3776.92,-8136 8436,-8136 v 0 c 2237.36,0 4383.1,857.18 5965.16,2382.98 1582.04,1525.79 2470.84,3595.215 2470.84,5753.02 v 0 c 0,4493.39 -3776.92,8136 -8436,8136 v 0 c -4659.08,0 -8436,-3642.61 -8436,-8136 z" /></g><path
               id="path82"
               style="fill:none;stroke:#000000;stroke-width:381;stroke-linecap:butt;stroke-linejoin:round;stroke-miterlimit:8;stroke-dasharray:none;stroke-opacity:1"
               d="m 168676,101148 v 0 c 0,-4493.39 3776.92,-8136 8436,-8136 v 0 c 2237.36,0 4383.1,857.18 5965.16,2382.98 1582.04,1525.79 2470.84,3595.215 2470.84,5753.02 v 0 c 0,4493.39 -3776.92,8136 -8436,8136 v 0 c -4659.08,0 -8436,-3642.61 -8436,-8136 z" /></g><g
             id="g84"><g
               id="g86"><path
                 id="path88"
                 style="fill:#cfe2f3;fill-opacity:1;fill-rule:evenodd;stroke:none"
                 d="m 203358,101148 v 0 c 0,-4493.39 3776.92,-8136 8436,-8136 v 0 c 2237.36,0 4383.1,857.18 5965.16,2382.98 1582.04,1525.79 2470.84,3595.215 2470.84,5753.02 v 0 c 0,4493.39 -3776.92,8136 -8436,8136 v 0 c -4659.08,0 -8436,-3642.61 -8436,-8136 z" /></g><path
               id="path90"
               style="fill:none;stroke:#000000;stroke-width:381;stroke-linecap:butt;stroke-linejoin:round;stroke-miterlimit:8;stroke-dasharray:none;stroke-opacity:1"
               d="m 203358,101148 v 0 c 0,-4493.39 3776.92,-8136 8436,-8136 v 0 c 2237.36,0 4383.1,857.18 5965.16,2382.98 1582.04,1525.79 2470.84,3595.215 2470.84,5753.02 v 0 c 0,4493.39 -3776.92,8136 -8436,8136 v 0 c -4659.08,0 -8436,-3642.61 -8436,-8136 z" /></g><g
             id="g92"><g
               id="g94"><path
                 id="path96"
                 style="fill:#cfe2f3;fill-opacity:1;fill-rule:evenodd;stroke:none"
                 d="m 203358,65164 v 0 c 0,-4493.39 3776.92,-8136 8436,-8136 v 0 c 2237.36,0 4383.1,857.184 5965.16,2382.98 1582.04,1525.793 2470.84,3595.22 2470.84,5753.02 v 0 c 0,4493.39 -3776.92,8136 -8436,8136 v 0 c -4659.08,0 -8436,-3642.61 -8436,-8136 z" /></g><path
               id="path98"
               style="fill:none;stroke:#000000;stroke-width:381;stroke-linecap:butt;stroke-linejoin:round;stroke-miterlimit:8;stroke-dasharray:none;stroke-opacity:1"
               d="m 203358,65164 v 0 c 0,-4493.39 3776.92,-8136 8436,-8136 v 0 c 2237.36,0 4383.1,857.184 5965.16,2382.98 1582.04,1525.793 2470.84,3595.22 2470.84,5753.02 v 0 c 0,4493.39 -3776.92,8136 -8436,8136 v 0 c -4659.08,0 -8436,-3642.61 -8436,-8136 z" /></g><g
             id="g100"><g
               id="g102"><path
                 id="path104"
                 style="fill:#cfe2f3;fill-opacity:1;fill-rule:evenodd;stroke:none"
                 d="m 222652,83157 v 0 c 0,-4493.39 3776.92,-8136 8436,-8136 v 0 c 2237.36,0 4383.1,857.18 5965.16,2382.98 1582.04,1525.79 2470.84,3595.215 2470.84,5753.02 v 0 c 0,4493.39 -3776.92,8136 -8436,8136 v 0 c -4659.08,0 -8436,-3642.61 -8436,-8136 z" /></g><path
               id="path106"
               style="fill:none;stroke:#000000;stroke-width:381;stroke-linecap:butt;stroke-linejoin:round;stroke-miterlimit:8;stroke-dasharray:none;stroke-opacity:1"
               d="m 222652,83157 v 0 c 0,-4493.39 3776.92,-8136 8436,-8136 v 0 c 2237.36,0 4383.1,857.18 5965.16,2382.98 1582.04,1525.79 2470.84,3595.215 2470.84,5753.02 v 0 c 0,4493.39 -3776.92,8136 -8436,8136 v 0 c -4659.08,0 -8436,-3642.61 -8436,-8136 z" /></g><g
             id="g108"><g
               id="g110"><g
                 id="g112"><path
                   id="path114"
                   style="fill:#000000;fill-opacity:0;fill-rule:evenodd;stroke:none"
                   d="m 183077.16,70917.02 22752,24480" /></g></g><path
               id="path116"
               style="fill:none;stroke:#000000;stroke-width:381;stroke-linecap:butt;stroke-linejoin:round;stroke-miterlimit:8;stroke-dasharray:none;stroke-opacity:1"
               d="m 183077.16,70917.02 22752,24480" /></g><g
             id="g118"><g
               id="g120"><g
                 id="g122"><path
                   id="path124"
                   style="fill:#000000;fill-opacity:0;fill-rule:evenodd;stroke:none"
                   d="m 183077.16,95394.98 22752,-24480" /></g></g><path
               id="path126"
               style="fill:none;stroke:#000000;stroke-width:381;stroke-linecap:butt;stroke-linejoin:round;stroke-miterlimit:8;stroke-dasharray:none;stroke-opacity:1"
               d="m 183077.16,95394.98 22752,-24480" /></g><g
             id="g128"><g
               id="g130"><g
                 id="g132"><path
                   id="path134"
                   style="fill:#000000;fill-opacity:0;fill-rule:evenodd;stroke:none"
                   d="m 185548,101148 h 17808" /></g></g><path
               id="path136"
               style="fill:none;stroke:#000000;stroke-width:381;stroke-linecap:butt;stroke-linejoin:round;stroke-miterlimit:8;stroke-dasharray:none;stroke-opacity:1"
               d="m 185548,101148 h 17808" /></g><g
             id="g138"><g
               id="g140"><g
                 id="g142"><path
                   id="path144"
                   style="fill:#000000;fill-opacity:0;fill-rule:evenodd;stroke:none"
                   d="m 185548,65164 h 17808" /></g></g><path
               id="path146"
               style="fill:none;stroke:#000000;stroke-width:381;stroke-linecap:butt;stroke-linejoin:round;stroke-miterlimit:8;stroke-dasharray:none;stroke-opacity:1"
               d="m 185548,65164 h 17808" /></g><g
             id="g148"><g
               id="g150"><g
                 id="g152"><path
                   id="path154"
                   style="fill:#000000;fill-opacity:0;fill-rule:evenodd;stroke:none"
                   d="m 217759.16,70917.02 7368,6492" /></g></g><path
               id="path156"
               style="fill:none;stroke:#000000;stroke-width:381;stroke-linecap:butt;stroke-linejoin:round;stroke-miterlimit:8;stroke-dasharray:none;stroke-opacity:1"
               d="m 217759.16,70917.02 7368,6492" /></g><g
             id="g158"><g
               id="g160"><g
                 id="g162"><path
                   id="path164"
                   style="fill:#000000;fill-opacity:0;fill-rule:evenodd;stroke:none"
                   d="m 217759.16,95394.98 7368,-6480" /></g></g><path
               id="path166"
               style="fill:none;stroke:#000000;stroke-width:381;stroke-linecap:butt;stroke-linejoin:round;stroke-miterlimit:8;stroke-dasharray:none;stroke-opacity:1"
               d="m 217759.16,95394.98 7368,-6480" /></g><g
             id="g168"><g
               id="g170"><g
                 id="g172"><path
                   id="path174"
                   style="fill:#000000;fill-opacity:0;fill-rule:evenodd;stroke:none"
                   d="m 140708,83718 27972,17436" /></g></g><path
               id="path176"
               style="fill:none;stroke:#000000;stroke-width:381;stroke-linecap:butt;stroke-linejoin:round;stroke-miterlimit:8;stroke-dasharray:none;stroke-opacity:1"
               d="m 140708,83718 27972,17436" /></g><g
             id="g178"><g
               id="g180"><g
                 id="g182"><path
                   id="path184"
                   style="fill:#000000;fill-opacity:0;fill-rule:evenodd;stroke:none"
                   d="M 140708,83718 168680,65166" /></g></g><path
               id="path186"
               style="fill:none;stroke:#000000;stroke-width:381;stroke-linecap:butt;stroke-linejoin:round;stroke-miterlimit:8;stroke-dasharray:none;stroke-opacity:1"
               d="M 140708,83718 168680,65166" /></g><g
             id="g188"><g
               id="g190"><g
                 id="g192"><path
                   id="path194"
                   style="fill:#000000;fill-opacity:0;fill-rule:evenodd;stroke:none"
                   d="m 168676,101148 -28116,-528" /></g></g><path
               id="path196"
               style="fill:none;stroke:#000000;stroke-width:381;stroke-linecap:butt;stroke-linejoin:round;stroke-miterlimit:8;stroke-dasharray:none;stroke-opacity:1"
               d="m 168676,101148 -28116,-528" /></g><g
             id="g198"><g
               id="g200"><g
                 id="g202"><path
                   id="path204"
                   style="fill:#000000;fill-opacity:0;fill-rule:evenodd;stroke:none"
                   d="m 168676,65164 -27816,35748" /></g></g><path
               id="path206"
               style="fill:none;stroke:#000000;stroke-width:381;stroke-linecap:butt;stroke-linejoin:round;stroke-miterlimit:8;stroke-dasharray:none;stroke-opacity:1"
               d="m 168676,65164 -27816,35748" /></g><g
             id="g208"><g
               id="g210"><g
                 id="g212"><path
                   id="path214"
                   style="fill:#000000;fill-opacity:0;fill-rule:evenodd;stroke:none"
                   d="M 168676,101148 141160,66288" /></g></g><path
               id="path216"
               style="fill:none;stroke:#000000;stroke-width:381;stroke-linecap:butt;stroke-linejoin:round;stroke-miterlimit:8;stroke-dasharray:none;stroke-opacity:1"
               d="M 168676,101148 141160,66288" /></g><g
             id="g218"><g
               id="g220"><g
                 id="g222"><path
                   id="path224"
                   style="fill:#000000;fill-opacity:0;fill-rule:evenodd;stroke:none"
                   d="m 168676,65164 -27516,828" /></g></g><path
               id="path226"
               style="fill:none;stroke:#000000;stroke-width:381;stroke-linecap:butt;stroke-linejoin:round;stroke-miterlimit:8;stroke-dasharray:none;stroke-opacity:1"
               d="m 168676,65164 -27516,828" /></g><g
             id="g228"><g
               id="g230"><g
                 id="g232"><path
                   id="path234"
                   style="fill:#000000;fill-opacity:0;fill-rule:evenodd;stroke:none"
                   d="m 77009.5,70917 h 62736 v 29736 h -62736 z" /></g></g></g><g
             transform="scale(381)"
             id="g236"><g
               transform="translate(202.12466,186.13387)"
               id="g238"><g
                 id="g240"><text
                   id="text244"
                   style="font-variant:normal;font-weight:normal;font-size:18.66666603px;font-family:ArialMT;-inkscape-font-specification:ArialMT;writing-mode:lr-tb;fill:#000000;fill-opacity:1;fill-rule:nonzero;stroke:none"
                   transform="translate(9,26.919998)"><tspan
                     id="tspan242"
                     y="0"
                     x="0 13.477333">RL</tspan></text>
<text
                   id="text248"
                   style="font-variant:normal;font-weight:normal;font-size:18.66666603px;font-family:ArialMT;-inkscape-font-specification:ArialMT;writing-mode:lr-tb;fill:#000000;fill-opacity:1;fill-rule:nonzero;stroke:none"
                   transform="translate(9,48.92)"><tspan
                     id="tspan246"
                     y="0"
                     x="0 13.477333 23.855999 34.234665 40.450665 50.82933 60.162666 70.541328 80.919998 86.09066 96.46933 101.64 105.784 116.16267">Representation</tspan></text>
</g></g></g><g
             transform="scale(381)"
             id="g250" /><g
             id="g252"><g
               id="g254"><g
                 id="g256"><path
                   id="path258"
                   style="fill:#000000;fill-opacity:0;fill-rule:evenodd;stroke:none"
                   d="m 95729,13021.148 h 25452 v 14124 H 95729 Z" /></g></g></g><g
             transform="scale(381)"
             id="g260"><g
               transform="translate(251.25722,34.176243)"
               id="g262"><g
                 id="g264"><text
                   id="text268"
                   style="font-variant:normal;font-weight:normal;font-size:18.66666603px;font-family:ArialMT;-inkscape-font-specification:ArialMT;writing-mode:lr-tb;fill:#0000ff;fill-opacity:1;fill-rule:nonzero;stroke:none"
                   transform="translate(9,26.919998)"><tspan
                     id="tspan266"
                     y="0"
                     x="0 12.431999 25.909332">SRL</tspan></text>
</g></g></g><g
             transform="scale(381)"
             id="g270" /><g
             id="g272"><g
               id="g274"><g
                 id="g276"><path
                   id="path278"
                   style="fill:#000000;fill-opacity:0;fill-rule:evenodd;stroke:none"
                   d="m 197478,13020.505 h 22752 v 14124.001 h -22752 z" /></g></g></g><g
             transform="scale(381)"
             id="g280"><g
               transform="translate(518.31494,34.174553)"
               id="g282"><g
                 id="g284"><text
                   id="text288"
                   style="font-variant:normal;font-weight:normal;font-size:18.66666603px;font-family:ArialMT;-inkscape-font-specification:ArialMT;writing-mode:lr-tb;fill:#0000ff;fill-opacity:1;fill-rule:nonzero;stroke:none"
                   transform="translate(9,26.919998)"><tspan
                     id="tspan286"
                     y="0"
                     x="0 13.477333">RL</tspan></text>
</g></g></g><g
             transform="scale(381)"
             id="g290" /><g
             id="g292"><g
               id="g294"><g
                 id="g296"><path
                   id="path298"
                   style="fill:#000000;fill-opacity:0;fill-rule:evenodd;stroke:none"
                   d="m 129804,0 h 56424 v 8496 h -56424 z" /></g></g></g><g
             transform="scale(381)"
             id="g300"><g
               transform="translate(340.6929)"
               id="g302"><g
                 id="g304"><text
                   id="text308"
                   style="font-variant:normal;font-weight:normal;font-size:18.66666603px;font-family:ArialMT;-inkscape-font-specification:ArialMT;writing-mode:lr-tb;fill:#980000;fill-opacity:1;fill-rule:nonzero;stroke:none"
                   transform="translate(9,26.919998)"><tspan
                     id="tspan306"
                     y="0"
                     x="0 12.431999 22.810665 33.189331 38.359997 43.530666 53.909332 59.079998 69.458664 79.837334 90.215996 95.386665 108.864">End to end RL</tspan></text>
</g></g></g><g
             transform="scale(381)"
             id="g310" /><g
             id="g312"><g
               id="g314"><g
                 id="g316"><path
                   id="path318"
                   style="fill:#000000;fill-opacity:0;fill-rule:evenodd;stroke:none"
                   d="m 3116,83454 73080,264" /></g></g><path
               id="path320"
               style="fill:none;stroke:#000000;stroke-width:381;stroke-linecap:butt;stroke-linejoin:round;stroke-miterlimit:8;stroke-dasharray:none;stroke-opacity:1"
               d="m 3116,83454 70794.016,255.74" /><path
               id="path322"
               style="fill:#000000;fill-opacity:1;fill-rule:evenodd;stroke:#000000;stroke-width:381;stroke-linecap:butt;stroke-linejoin:miter;stroke-miterlimit:10;stroke-dasharray:none;stroke-opacity:1"
               d="m 73907.74,84339.05 1731.276,-623.066 -1726.726,-635.544 z" /></g><g
             id="g324"><g
               id="g326"><g
                 id="g328"><path
                   id="path330"
                   style="fill:#000000;fill-opacity:0;fill-rule:evenodd;stroke:none"
                   d="m 239524,83157 59352,-300" /></g></g><path
               id="path332"
               style="fill:none;stroke:#000000;stroke-width:381;stroke-linecap:butt;stroke-linejoin:round;stroke-miterlimit:8;stroke-dasharray:none;stroke-opacity:1"
               d="m 239524,83157 57066.03,-288.445" /><path
               id="path334"
               style="fill:#000000;fill-opacity:1;fill-rule:evenodd;stroke:#000000;stroke-width:381;stroke-linecap:butt;stroke-linejoin:miter;stroke-miterlimit:10;stroke-dasharray:none;stroke-opacity:1"
               d="m 296593.22,83497.86 1725.81,-638.05 -1732.19,-620.56 z" /></g><g
             id="g336"><g
               id="g338"><g
                 id="g340"><path
                   id="path342"
                   style="fill:#000000;fill-opacity:0;fill-rule:evenodd;stroke:none"
                   d="M 0,70915 H 59184 V 81367 H 0 Z" /></g></g></g><g
             transform="scale(381)"
             id="g344"><g
               transform="translate(0,186.12862)"
               id="g346"><g
                 id="g348"><text
                   id="text352"
                   style="font-variant:normal;font-weight:normal;font-size:18.66666603px;font-family:ArialMT;-inkscape-font-specification:ArialMT;writing-mode:lr-tb;fill:#000000;fill-opacity:1;fill-rule:nonzero;stroke:none"
                   transform="translate(9,26.919998)"><tspan
                     id="tspan350"
                     y="0"
                     x="0 14.504 24.882666 34.216 44.594666 50.810665 60.143997 70.522667 75.693329 79.837334 90.215996 100.59467">Observations</tspan></text>
</g></g></g><g
             transform="scale(381)"
             id="g354" /><g
             id="g356"><g
               id="g358"><g
                 id="g360"><path
                   id="path362"
                   style="fill:#000000;fill-opacity:0;fill-rule:evenodd;stroke:none"
                   d="m 269413,69216 h 37284 v 10452 h -37284 z" /></g></g></g><g
             transform="scale(381)"
             id="g364"><g
               transform="translate(707.1207,181.6693)"
               id="g366"><g
                 id="g368"><text
                   id="text372"
                   style="font-variant:normal;font-weight:normal;font-size:18.66666603px;font-family:ArialMT;-inkscape-font-specification:ArialMT;writing-mode:lr-tb;fill:#000000;fill-opacity:1;fill-rule:nonzero;stroke:none"
                   transform="translate(9,26.919998)"><tspan
                     id="tspan370"
                     y="0"
                     x="0 12.431999 21.765333 26.935999 31.079998 41.458664 51.83733">Actions</tspan></text>
</g></g></g><g
             transform="scale(381)"
             id="g374" /></g></g></g></g></svg>